<?xml version="1.0" standalone="no"?>
<!DOCTYPE svg PUBLIC "-//W3C//DTD SVG 20010904//EN"
 "http://www.w3.org/TR/2001/REC-SVG-20010904/DTD/svg10.dtd">
<svg version="1.0" xmlns="http://www.w3.org/2000/svg"
 width="700.000000pt" height="700.000000pt" viewBox="0 0 700.000000 700.000000"
 preserveAspectRatio="xMidYMid meet">
<metadata>
Created by potrace 1.11, written by Peter Selinger 2001-2013
</metadata>
<g transform="translate(0.000000,700.000000) scale(0.100000,-0.100000)"
fill="#000000" stroke="none">
<path d="M1911 6445 c-1673 -315 -1777 -335 -1815 -362 -23 -16 -52 -49 -66
-73 l-25 -45 0 -2465 0 -2465 25 -45 c52 -93 27 -85 795 -230 2473 -464 2881
-540 2899 -540 73 0 150 51 189 124 l22 41 3 792 3 792 357 3 357 3 47 28
c114 67 141 226 55 324 -63 72 -69 73 -464 73 l-353 0 0 225 0 225 353 0 c395
0 401 1 464 73 86 98 59 257 -55 324 l-47 28 -357 3 -358 3 0 219 0 219 358 3
357 3 47 28 c114 67 141 226 55 324 -63 72 -69 73 -464 73 l-353 0 0 225 0
225 353 0 c395 0 401 1 464 73 86 98 59 257 -55 324 l-47 28 -357 3 -357 3 -3
792 -3 792 -22 41 c-41 77 -119 125 -198 123 -16 0 -828 -151 -1804 -334z
m1027 -1654 c43 -22 83 -63 106 -108 24 -48 21 -141 -6 -190 -13 -22 -180
-241 -371 -487 l-349 -446 348 -396 c190 -218 357 -415 370 -438 31 -53 33
-140 5 -194 -65 -125 -219 -165 -325 -84 -19 15 -177 190 -351 390 -174 199
-319 362 -323 362 -4 -1 -128 -159 -277 -351 -148 -193 -289 -368 -313 -389
-95 -85 -248 -66 -319 39 -46 68 -53 154 -17 222 8 17 150 203 315 416 165
212 303 391 306 399 3 8 -122 158 -300 363 -168 192 -313 363 -321 379 -52
101 -15 223 87 286 60 37 140 40 202 8 50 -26 77 -54 375 -395 133 -153 246
-275 250 -270 4 4 150 193 325 418 175 226 329 421 344 433 14 13 40 30 56 37
45 21 139 19 183 -4z"/>
<path d="M5396 5016 c-44 -16 -100 -67 -124 -111 -37 -70 -13 -194 50 -252 52
-49 78 -53 368 -53 248 0 274 2 309 19 156 80 162 296 11 381 -45 25 -48 25
-310 27 -208 2 -273 0 -304 -11z"/>
<path d="M5380 4134 c-140 -61 -170 -247 -56 -352 24 -22 61 -45 82 -51 23 -6
142 -11 290 -11 l250 0 55 28 c127 64 159 223 66 328 -62 72 -74 74 -379 74
-221 -1 -280 -4 -308 -16z"/>
<path d="M5396 3266 c-44 -16 -100 -67 -124 -111 -37 -70 -13 -194 50 -252 52
-49 78 -53 368 -53 248 0 274 2 309 19 156 80 162 296 11 381 -45 25 -48 25
-310 27 -208 2 -273 0 -304 -11z"/>
<path d="M5380 2384 c-140 -61 -170 -247 -56 -352 24 -22 61 -45 82 -51 23 -6
142 -11 290 -11 l250 0 55 28 c127 64 159 223 66 328 -62 72 -74 74 -379 74
-221 -1 -280 -4 -308 -16z"/>
</g>
</svg>
